<svg width="32" height="26" viewBox="0 0 32 26" fill="none" xmlns="http://www.w3.org/2000/svg">
<g opacity="0.3">
<path d="M31.4347 12.9347C31.4355 14.971 31.0352 16.9872 30.2567 18.8682C29.8092 19.9493 29.2419 20.9735 28.567 21.9225C28.0232 22.6869 26.9312 22.7134 26.2678 22.05V22.05C27.2718 20.9118 28.0821 19.6138 28.6641 18.2076C29.3561 16.5357 29.712 14.7435 29.7114 12.9336C29.7107 11.1236 29.3536 9.33126 28.6604 7.65883C27.9672 5.9864 26.9514 4.46666 25.6711 3.18638L25.0553 2.57057L25.6573 1.96858C25.9974 1.62848 26.5488 1.62848 26.8889 1.96858V1.96858C28.3293 3.409 29.4722 5.11881 30.2521 7.00039C31.0321 8.88196 31.434 10.8984 31.4347 12.9347Z" fill="white"/>
<path d="M0.405828 12.9058C0.405041 10.8695 0.805338 8.85335 1.58386 6.97238C2.03133 5.89126 2.5987 4.86698 3.27362 3.91807C3.81736 3.15358 4.90941 3.12718 5.57277 3.79054V3.79054C4.56877 4.92878 3.75852 6.22678 3.17648 7.63294C2.48442 9.30488 2.12856 11.097 2.12919 12.9069C2.12983 14.7169 2.48696 16.5093 3.18019 18.1817C3.87342 19.8541 4.88917 21.3739 6.16946 22.6542L6.78526 23.27L6.18327 23.8719C5.84317 24.212 5.29176 24.212 4.95166 23.8719V23.8719C3.51124 22.4315 2.36842 20.7217 1.58844 18.8401C0.808466 16.9586 0.406615 14.9421 0.405828 12.9058Z" fill="white"/>
<path d="M5.55371 3.77148L4.33591 4.98928L24.3707 25.0241C24.68 25.3334 25.1722 25.3617 25.5149 25.0897V25.0897C25.918 24.7699 25.9524 24.1702 25.5885 23.8063L5.55371 3.77148Z" fill="white"/>
<path d="M7.56197 0.908558C7.25263 0.599223 6.76051 0.570982 6.41782 0.8429V0.8429C6.0147 1.16277 5.98029 1.76247 6.34417 2.12635L26.2821 22.0643L27.4999 20.8465L7.56197 0.908558Z" fill="white"/>
<path d="M26.27 3.78524L25.0506 2.56583L5.56585 22.0505L6.78526 23.27L26.27 3.78524Z" fill="white"/>
</g>
</svg>
