<svg width="48" height="48" viewBox="0 0 48 48" fill="none" xmlns="http://www.w3.org/2000/svg">
<g clip-path="url(#clip0_1110_7)">
<path d="M24 0C19.2533 0 14.6131 1.40758 10.6663 4.04473C6.71954 6.68188 3.64341 10.4302 1.8269 14.8156C0.0103989 19.201 -0.464881 24.0266 0.461164 28.6822C1.38721 33.3377 3.67299 37.6141 7.02945 40.9706C10.3859 44.327 14.6623 46.6128 19.3178 47.5388C23.9734 48.4649 28.799 47.9896 33.1844 46.1731C37.5698 44.3566 41.3181 41.2805 43.9553 37.3337C46.5924 33.3869 48 28.7468 48 24C48 17.6348 45.4714 11.5303 40.9706 7.02944C36.4697 2.52856 30.3652 0 24 0ZM35 34.62C34.57 35.2 33.55 35.62 33 35.05C27.33 31.71 20.34 30.84 11.91 32.73C11.7264 32.7777 11.5345 32.784 11.3482 32.7484C11.1618 32.7129 10.9857 32.6363 10.8326 32.5243C10.6795 32.4124 10.5532 32.2678 10.4628 32.101C10.3724 31.9342 10.3202 31.7494 10.31 31.56C10.1942 31.1768 10.2343 30.7633 10.4215 30.4094C10.6087 30.0556 10.928 29.7898 11.31 29.67C20.47 27.67 28.18 28.51 34.72 32.44C35.0135 32.7124 35.206 33.0764 35.2659 33.4723C35.3258 33.8683 35.2497 34.2729 35.05 34.62H35ZM38 28.07C37.8748 28.2882 37.7054 28.4779 37.5027 28.6269C37.3001 28.776 37.0685 28.8811 36.8229 28.9357C36.5774 28.9903 36.3231 28.9931 36.0764 28.9439C35.8296 28.8947 35.5959 28.7946 35.39 28.65C28.1026 24.6483 19.5385 23.6576 11.53 25.89C11.2704 26.0153 10.9868 26.0829 10.6987 26.0884C10.4105 26.0938 10.1246 26.0369 9.86044 25.9216C9.59631 25.8063 9.36023 25.6352 9.16837 25.4201C8.9765 25.205 8.83339 24.951 8.74884 24.6755C8.66428 24.4 8.64028 24.1094 8.67847 23.8237C8.71666 23.538 8.81614 23.264 8.97011 23.0203C9.12408 22.7767 9.32888 22.5692 9.57051 22.4121C9.81213 22.255 10.0849 22.1519 10.37 22.11C14.8407 20.8103 19.5272 20.4238 24.1504 20.9736C28.7736 21.5233 33.2388 22.9981 37.28 25.31C37.7183 25.6011 38.0341 26.0434 38.1669 26.5526C38.2997 27.0617 38.2403 27.6019 38 28.07ZM41.2 20.51C41.0641 20.7679 40.8775 20.9958 40.6516 21.18C40.4256 21.3642 40.1648 21.501 39.8848 21.5822C39.6048 21.6634 39.3113 21.6873 39.0218 21.6526C38.7324 21.6179 38.4529 21.5252 38.2 21.38C30.49 16.73 17.69 16.44 10.27 18.62C10.13 18.62 10.13 18.76 9.98001 18.76C9.38563 18.883 8.76672 18.7671 8.25713 18.4373C7.74753 18.1076 7.38819 17.5905 7.25679 16.998C7.1254 16.4054 7.23252 15.7849 7.55499 15.2707C7.87745 14.7564 8.38936 14.3898 8.98001 14.25C17.56 11.64 31.53 12.25 40.55 17.45C40.8078 17.5958 41.0311 17.7955 41.2047 18.0354C41.3783 18.2753 41.4981 18.5498 41.556 18.8403C41.6139 19.1307 41.6085 19.4302 41.5401 19.7183C41.4718 20.0065 41.3422 20.2765 41.16 20.51H41.2Z" fill="white"/>
</g>
<defs>
<clipPath id="clip0_1110_7">
<rect width="48" height="48" fill="white"/>
</clipPath>
</defs>
</svg>
