<svg width="48" height="48" viewBox="0 0 48 48" fill="none" xmlns="http://www.w3.org/2000/svg">
<g clip-path="url(#clip0_806_12)">
<path fill-rule="evenodd" clip-rule="evenodd" d="M3.368 3.368C0 6.736 0 12.1584 0 23V25C0 35.84 0 41.264 3.368 44.632C6.736 48 12.1584 48 23 48H25C35.84 48 41.264 48 44.632 44.632C48 41.264 48 35.8416 48 25V23C48 12.16 48 6.736 44.632 3.368C41.264 0 35.8416 0 25 0H23C12.16 0 6.736 0 3.368 3.368ZM9.50078 15H13C13.8944 15 14.2304 15.392 14.5664 16.3616C16.2784 21.3472 19.1648 25.7056 20.3504 25.7056C20.7968 25.7056 21 25.5008 21 24.3696V19.216C20.9198 17.7489 20.4073 17.1143 20.0276 16.6443C19.7933 16.3541 19.6096 16.1267 19.6096 15.8048C19.6096 15.4128 19.944 15 20.4992 15H26C26.7424 15 27 15.3968 27 16.2864V23.2208C27 23.9616 27.3216 24.2224 27.544 24.2224C27.9888 24.2224 28.36 23.9616 29.176 23.1456C31.6976 20.328 33.4768 15.9904 33.4768 15.9904C33.6992 15.4704 34.1104 15 35 15H38.4992C39.5584 15 39.7824 15.5456 39.5584 16.2864C39.1136 18.3264 34.8496 24.3328 34.8496 24.3328C34.4784 24.9264 34.3296 25.2224 34.8496 25.8896C35.0331 26.1467 35.4246 26.5304 35.8722 26.9691C36.33 27.4179 36.8466 27.9242 37.2592 28.4112C38.7632 30.1024 39.896 31.5296 40.2112 32.512C40.5008 33.4992 40 34 39 34H35.4992C34.562 34 34.0904 33.4751 33.0706 32.34C32.6385 31.859 32.1078 31.2683 31.4016 30.5616C29.3232 28.56 28.4352 28.3008 27.9152 28.3008C27.2112 28.3008 27 28.5008 27 29.5008V32.64C27 33.4992 26.7248 34 24.4992 34C20.792 34 16.7168 31.7488 13.8256 27.5952C9.48638 21.5152 8.30078 16.9168 8.30078 15.9904C8.30078 15.4704 8.50078 15 9.50078 15Z" fill="white"/>
</g>
<defs>
<clipPath id="clip0_806_12">
<rect width="48" height="48" fill="white"/>
</clipPath>
</defs>
</svg>
