<svg width="49" height="48" viewBox="0 0 49 48" fill="none" xmlns="http://www.w3.org/2000/svg">
<path d="M23.1674 9.5041C23.1929 13.7142 23.1929 18.3498 23.1929 22.4412C19.8339 22.4412 16.6757 22.4412 13.3984 22.4412C13.3984 18.153 13.3984 14.1112 13.3984 9.5041C16.6244 9.5041 20.0965 9.5041 23.1674 9.5041Z" />
<path d="M35.5695 9.5041C35.5951 13.7142 35.5951 18.3498 35.5951 22.4412C32.2361 22.4412 29.0778 22.4412 25.8006 22.4412C25.8006 18.153 25.8006 14.1112 25.8006 9.5041C29.0266 9.5041 32.4987 9.5041 35.5695 9.5041Z" />
<path d="M48 22.4133V0H38.081L38.081 22.4133H48Z" />
<path d="M13.3992 35.5942H38.6136V37.7263C29.9019 37.612 19.3486 37.612 10.7999 37.612L10.7999 34.5892C10.7999 23.8918 10.8287 10.7052 10.7438 0.00850964H1V48H47.8389V25.7594H13.3992V35.5942Z" />
</svg>
