<svg width="48" height="48" viewBox="0 0 48 48" fill="none" xmlns="http://www.w3.org/2000/svg">
<path d="M15.8824 8C7.11534 7.99995 4.48648e-05 15.2733 2.12166e-10 24.2352C-4.48643e-05 33.1971 7.11518 40.4705 15.8823 40.4706C24.6494 40.4706 31.7647 33.1973 31.7647 24.2354C31.7648 15.2735 24.6495 8.00005 15.8824 8ZM15.8823 29.1059C13.2459 29.1059 11.1176 26.9302 11.1176 24.2353C11.1177 21.5402 13.2459 19.3647 15.8824 19.3647C18.5188 19.3647 20.6471 21.5402 20.6471 24.2353C20.647 26.9302 18.5188 29.1059 15.8823 29.1059Z" />
<path d="M34.0871 20.1765C38.1219 21.3632 42.8859 20.1765 42.8859 20.1765C41.504 26.346 37.1206 30.2098 30.7994 30.6807C28.3694 36.4443 22.7629 40.4706 16.2353 40.4706L21 24.9905C25.898 9.07772 28.4083 7.99994 40.0244 8L48 8.00004C46.6658 14.007 42.0679 18.5964 34.0871 20.1765Z" />
</svg>
