<svg width="48" height="48" viewBox="0 0 48 48" fill="none" xmlns="http://www.w3.org/2000/svg">
<path d="M24 0.75C11.3875 0.75 1.15201 11.1656 1.15201 24C1.15201 36.8344 11.3875 47.25 24 47.25C36.6125 47.25 46.848 36.8344 46.848 24C46.848 11.1656 36.6125 0.75 24 0.75Z" fill="#1ED760"/>
<path d="M38.6117 21.6656C38.1326 21.6656 37.8378 21.5438 37.4232 21.3C30.8636 17.3156 19.1356 16.3594 11.5441 18.5156C11.2125 18.6094 10.7979 18.7594 10.3557 18.7594C9.13958 18.7594 8.20908 17.7938 8.20908 16.5469C8.20908 15.2719 8.98296 14.55 9.81212 14.3063C13.0551 13.3406 16.6849 12.8813 20.6373 12.8813C27.3627 12.8813 34.4106 14.3063 39.5606 17.3625C40.2792 17.7844 40.749 18.3656 40.749 19.4813C40.749 20.7563 39.7356 21.6656 38.6117 21.6656ZM35.7557 28.8094C35.2766 28.8094 34.9541 28.5938 34.6225 28.4156C28.8644 24.9469 20.278 23.55 12.6405 25.6594C12.1983 25.7813 11.9587 25.9031 11.5441 25.9031C10.5584 25.9031 9.75684 25.0875 9.75684 24.0844C9.75684 23.0813 10.2359 22.4156 11.1848 22.1438C13.746 21.4125 16.3625 20.8688 20.1951 20.8688C26.1742 20.8688 31.9507 22.3781 36.5019 25.1344C37.2481 25.5844 37.543 26.1656 37.543 26.9813C37.5337 27.9938 36.7599 28.8094 35.7557 28.8094ZM33.2774 34.9594C32.8904 34.9594 32.6509 34.8375 32.2916 34.6219C26.5428 31.0969 19.8542 30.9469 13.2485 32.325C12.8892 32.4188 12.4194 32.5688 12.1522 32.5688C11.2585 32.5688 10.6966 31.8469 10.6966 31.0875C10.6966 30.1219 11.2585 29.6625 11.9495 29.5125C19.4949 27.8156 27.2061 27.9656 33.7841 31.9688C34.3461 32.3344 34.6777 32.6625 34.6777 33.5156C34.6777 34.3688 34.0236 34.9594 33.2774 34.9594Z" fill="black"/>
</svg>
