<svg width="47" height="48" viewBox="0 0 47 48" fill="none" xmlns="http://www.w3.org/2000/svg">
<g clip-path="url(#clip0_1110_7)">
<path d="M23.1125 0C18.5413 0 14.0727 1.40758 10.2719 4.04473C6.47106 6.68188 3.50868 10.4302 1.75934 14.8156C0.0100143 19.201 -0.44769 24.0266 0.444111 28.6822C1.33591 33.3377 3.53716 37.6141 6.7695 40.9706C10.0018 44.327 14.1201 46.6128 18.6035 47.5388C23.0869 48.4649 27.734 47.9896 31.9573 46.1731C36.1805 44.3566 39.7902 41.2805 42.3298 37.3337C44.8695 33.3869 46.225 28.7468 46.225 24C46.225 17.6348 43.7899 11.5303 39.4555 7.02944C35.1211 2.52856 29.2423 0 23.1125 0ZM33.7057 34.62C33.2916 35.2 32.3094 35.62 31.7797 35.05C26.3194 31.71 19.5879 30.84 11.4696 32.73C11.2928 32.7777 11.108 32.784 10.9285 32.7484C10.7491 32.7129 10.5795 32.6363 10.432 32.5243C10.2846 32.4124 10.1629 32.2678 10.0759 32.101C9.98884 31.9342 9.93858 31.7494 9.92875 31.56C9.81722 31.1768 9.8558 30.7633 10.0361 30.4094C10.2164 30.0556 10.5239 29.7898 10.8918 29.67C19.713 27.67 27.1379 28.51 33.4361 32.44C33.7188 32.7124 33.9041 33.0764 33.9618 33.4723C34.0195 33.8683 33.9462 34.2729 33.7539 34.62H33.7057ZM36.5948 28.07C36.4742 28.2882 36.3111 28.4779 36.1159 28.6269C35.9207 28.776 35.6978 28.8811 35.4613 28.9357C35.2248 28.9903 34.9799 28.9931 34.7423 28.9439C34.5047 28.8947 34.2796 28.7946 34.0813 28.65C27.0634 24.6483 18.816 23.6576 11.1036 25.89C10.8537 26.0153 10.5806 26.0829 10.3031 26.0884C10.0255 26.0938 9.75018 26.0369 9.49581 25.9216C9.24145 25.8063 9.01409 25.6352 8.82933 25.4201C8.64456 25.205 8.50674 24.951 8.42531 24.6755C8.34388 24.4 8.32077 24.1094 8.35754 23.8237C8.39432 23.538 8.49013 23.264 8.6384 23.0203C8.78667 22.7767 8.98391 22.5692 9.2166 22.4121C9.44928 22.255 9.71193 22.1519 9.98654 22.11C14.2919 20.8103 18.8051 20.4238 23.2574 20.9736C27.7096 21.5233 32.0097 22.9981 35.9014 25.31C36.3235 25.6011 36.6276 26.0434 36.7555 26.5526C36.8834 27.0617 36.8262 27.6019 36.5948 28.07ZM39.6765 20.51C39.5455 20.7679 39.3659 20.9958 39.1483 21.18C38.9307 21.3642 38.6795 21.501 38.4099 21.5822C38.1402 21.6634 37.8576 21.6873 37.5788 21.6526C37.3001 21.6179 37.0309 21.5252 36.7874 21.38C29.3625 16.73 17.0358 16.44 9.89023 18.62C9.75541 18.62 9.75541 18.76 9.61096 18.76C9.03855 18.883 8.44254 18.7671 7.95179 18.4373C7.46103 18.1076 7.11498 17.5905 6.98844 16.998C6.86191 16.4054 6.96507 15.7849 7.27561 15.2707C7.58615 14.7564 8.07912 14.3898 8.64794 14.25C16.9107 11.64 30.3641 12.25 39.0505 17.45C39.2987 17.5958 39.5138 17.7955 39.6809 18.0354C39.8481 18.2753 39.9635 18.5498 40.0193 18.8403C40.075 19.1307 40.0698 19.4302 40.004 19.7183C39.9382 20.0065 39.8134 20.2765 39.6379 20.51H39.6765Z" />
</g>
<defs>
<clipPath id="clip0_1110_7">
<rect width="46.225" height="48" />
</clipPath>
</defs>
</svg>
